<mxfile host="app.diagrams.net" modified="2024-05-02T19:56:03.278Z" agent="Mozilla/5.0 (Windows NT 10.0; Win64; x64; rv:125.0) Gecko/20100101 Firefox/125.0" etag="E-dAVY-B0bfBgKk6b6HO" version="24.3.1" type="device">
  <diagram name="Page-1" id="8G-TDpBrZnWFRdwxH2hP">
    <mxGraphModel dx="1050" dy="558" grid="0" gridSize="10" guides="1" tooltips="1" connect="1" arrows="1" fold="1" page="1" pageScale="1" pageWidth="827" pageHeight="1169" math="0" shadow="0">
      <root>
        <mxCell id="0" />
        <mxCell id="1" parent="0" />
        <mxCell id="ctMj3vyAkk-ZHn5RQAny-15" style="rounded=0;orthogonalLoop=1;jettySize=auto;html=1;entryX=0.5;entryY=1;entryDx=0;entryDy=0;" parent="1" source="ctMj3vyAkk-ZHn5RQAny-1" target="ctMj3vyAkk-ZHn5RQAny-4" edge="1">
          <mxGeometry relative="1" as="geometry" />
        </mxCell>
        <mxCell id="ctMj3vyAkk-ZHn5RQAny-16" style="rounded=0;orthogonalLoop=1;jettySize=auto;html=1;exitX=1;exitY=0;exitDx=0;exitDy=0;entryX=0;entryY=1;entryDx=0;entryDy=0;" parent="1" source="ctMj3vyAkk-ZHn5RQAny-1" target="ctMj3vyAkk-ZHn5RQAny-6" edge="1">
          <mxGeometry relative="1" as="geometry" />
        </mxCell>
        <mxCell id="ctMj3vyAkk-ZHn5RQAny-17" style="rounded=0;orthogonalLoop=1;jettySize=auto;html=1;entryX=0;entryY=0.5;entryDx=0;entryDy=0;" parent="1" source="ctMj3vyAkk-ZHn5RQAny-1" target="ctMj3vyAkk-ZHn5RQAny-7" edge="1">
          <mxGeometry relative="1" as="geometry" />
        </mxCell>
        <mxCell id="1a3qa3QEZU3ZwUFXincs-4" style="rounded=0;orthogonalLoop=1;jettySize=auto;html=1;entryX=0;entryY=0.5;entryDx=0;entryDy=0;" edge="1" parent="1" source="ctMj3vyAkk-ZHn5RQAny-1" target="1a3qa3QEZU3ZwUFXincs-1">
          <mxGeometry relative="1" as="geometry" />
        </mxCell>
        <mxCell id="1a3qa3QEZU3ZwUFXincs-5" style="rounded=0;orthogonalLoop=1;jettySize=auto;html=1;exitX=1;exitY=1;exitDx=0;exitDy=0;entryX=0;entryY=0.5;entryDx=0;entryDy=0;" edge="1" parent="1" source="ctMj3vyAkk-ZHn5RQAny-1" target="1a3qa3QEZU3ZwUFXincs-2">
          <mxGeometry relative="1" as="geometry" />
        </mxCell>
        <mxCell id="ctMj3vyAkk-ZHn5RQAny-1" value="" style="ellipse;whiteSpace=wrap;html=1;" parent="1" vertex="1">
          <mxGeometry x="20" y="230" width="170" height="90" as="geometry" />
        </mxCell>
        <mxCell id="ctMj3vyAkk-ZHn5RQAny-2" value="&lt;font color=&quot;#000000&quot;&gt;ClientReferee&lt;/font&gt;" style="ellipse;whiteSpace=wrap;html=1;movable=1;resizable=1;rotatable=1;deletable=1;editable=1;locked=0;connectable=1;fillColor=#A6A6A6;fontColor=#ffffff;strokeColor=#314354;" parent="1" vertex="1">
          <mxGeometry x="30" y="240" width="150" height="70" as="geometry" />
        </mxCell>
        <mxCell id="ctMj3vyAkk-ZHn5RQAny-12" style="rounded=0;orthogonalLoop=1;jettySize=auto;html=1;entryX=0;entryY=0.5;entryDx=0;entryDy=0;" parent="1" source="ctMj3vyAkk-ZHn5RQAny-4" target="ctMj3vyAkk-ZHn5RQAny-6" edge="1">
          <mxGeometry relative="1" as="geometry" />
        </mxCell>
        <mxCell id="ctMj3vyAkk-ZHn5RQAny-19" style="rounded=0;orthogonalLoop=1;jettySize=auto;html=1;entryX=0;entryY=0;entryDx=0;entryDy=0;" parent="1" source="ctMj3vyAkk-ZHn5RQAny-4" target="ctMj3vyAkk-ZHn5RQAny-7" edge="1">
          <mxGeometry relative="1" as="geometry" />
        </mxCell>
        <mxCell id="ctMj3vyAkk-ZHn5RQAny-4" value="&lt;font color=&quot;#000000&quot;&gt;Referee&lt;/font&gt;" style="ellipse;whiteSpace=wrap;html=1;movable=1;resizable=1;rotatable=1;deletable=1;editable=1;locked=0;connectable=1;fillColor=#A6A6A6;fontColor=#ffffff;strokeColor=#314354;" parent="1" vertex="1">
          <mxGeometry x="30" y="70" width="150" height="70" as="geometry" />
        </mxCell>
        <mxCell id="ctMj3vyAkk-ZHn5RQAny-13" style="rounded=0;orthogonalLoop=1;jettySize=auto;html=1;entryX=0;entryY=0.5;entryDx=0;entryDy=0;" parent="1" source="ctMj3vyAkk-ZHn5RQAny-6" target="ctMj3vyAkk-ZHn5RQAny-9" edge="1">
          <mxGeometry relative="1" as="geometry" />
        </mxCell>
        <mxCell id="ctMj3vyAkk-ZHn5RQAny-24" style="rounded=0;orthogonalLoop=1;jettySize=auto;html=1;entryX=0;entryY=0;entryDx=0;entryDy=0;" parent="1" source="ctMj3vyAkk-ZHn5RQAny-6" target="ctMj3vyAkk-ZHn5RQAny-10" edge="1">
          <mxGeometry relative="1" as="geometry" />
        </mxCell>
        <mxCell id="ctMj3vyAkk-ZHn5RQAny-6" value="bench" style="ellipse;whiteSpace=wrap;html=1;movable=1;resizable=1;rotatable=1;deletable=1;editable=1;locked=0;connectable=1;" parent="1" vertex="1">
          <mxGeometry x="339" y="70" width="150" height="70" as="geometry" />
        </mxCell>
        <mxCell id="ctMj3vyAkk-ZHn5RQAny-25" style="rounded=0;orthogonalLoop=1;jettySize=auto;html=1;entryX=0;entryY=0.5;entryDx=0;entryDy=0;" parent="1" source="ctMj3vyAkk-ZHn5RQAny-7" target="ctMj3vyAkk-ZHn5RQAny-10" edge="1">
          <mxGeometry relative="1" as="geometry" />
        </mxCell>
        <mxCell id="ctMj3vyAkk-ZHn5RQAny-7" value="playground" style="ellipse;whiteSpace=wrap;html=1;movable=1;resizable=1;rotatable=1;deletable=1;editable=1;locked=0;connectable=1;" parent="1" vertex="1">
          <mxGeometry x="339" y="190" width="150" height="70" as="geometry" />
        </mxCell>
        <mxCell id="ctMj3vyAkk-ZHn5RQAny-14" style="rounded=0;orthogonalLoop=1;jettySize=auto;html=1;entryX=0.5;entryY=0;entryDx=0;entryDy=0;" parent="1" source="ctMj3vyAkk-ZHn5RQAny-9" target="ctMj3vyAkk-ZHn5RQAny-10" edge="1">
          <mxGeometry relative="1" as="geometry" />
        </mxCell>
        <mxCell id="ctMj3vyAkk-ZHn5RQAny-9" value="com" style="ellipse;whiteSpace=wrap;html=1;movable=1;resizable=1;rotatable=1;deletable=1;editable=1;locked=0;connectable=1;" parent="1" vertex="1">
          <mxGeometry x="620" y="100" width="150" height="70" as="geometry" />
        </mxCell>
        <mxCell id="ctMj3vyAkk-ZHn5RQAny-10" value="&lt;div&gt;inMessage&lt;/div&gt;&lt;div&gt;outMessage&lt;br&gt;&lt;/div&gt;" style="ellipse;whiteSpace=wrap;html=1;movable=1;resizable=1;rotatable=1;deletable=1;editable=1;locked=0;connectable=1;" parent="1" vertex="1">
          <mxGeometry x="624" y="250" width="150" height="70" as="geometry" />
        </mxCell>
        <mxCell id="ctMj3vyAkk-ZHn5RQAny-23" style="rounded=0;orthogonalLoop=1;jettySize=auto;html=1;exitX=1;exitY=0.5;exitDx=0;exitDy=0;entryX=0.033;entryY=0.714;entryDx=0;entryDy=0;entryPerimeter=0;" parent="1" source="ctMj3vyAkk-ZHn5RQAny-7" target="ctMj3vyAkk-ZHn5RQAny-9" edge="1">
          <mxGeometry relative="1" as="geometry" />
        </mxCell>
        <mxCell id="ctMj3vyAkk-ZHn5RQAny-27" value="&lt;font style=&quot;font-size: 14px;&quot;&gt;1&lt;/font&gt;" style="text;html=1;align=center;verticalAlign=middle;resizable=0;points=[];autosize=1;strokeColor=none;fillColor=none;" parent="1" vertex="1">
          <mxGeometry x="80" y="140" width="30" height="30" as="geometry" />
        </mxCell>
        <mxCell id="ctMj3vyAkk-ZHn5RQAny-31" value="&lt;font style=&quot;font-size: 14px;&quot;&gt;2&lt;/font&gt;" style="text;html=1;align=center;verticalAlign=middle;resizable=0;points=[];autosize=1;strokeColor=none;fillColor=none;" parent="1" vertex="1">
          <mxGeometry x="339" y="130" width="30" height="30" as="geometry" />
        </mxCell>
        <mxCell id="ctMj3vyAkk-ZHn5RQAny-33" value="&lt;font style=&quot;font-size: 14px;&quot;&gt;2&lt;/font&gt;" style="text;html=1;align=center;verticalAlign=middle;resizable=0;points=[];autosize=1;strokeColor=none;fillColor=none;" parent="1" vertex="1">
          <mxGeometry x="320" y="230" width="30" height="30" as="geometry" />
        </mxCell>
        <mxCell id="ctMj3vyAkk-ZHn5RQAny-35" value="&lt;font style=&quot;font-size: 14px;&quot;&gt;3&lt;/font&gt;" style="text;html=1;align=center;verticalAlign=middle;resizable=0;points=[];autosize=1;strokeColor=none;fillColor=none;" parent="1" vertex="1">
          <mxGeometry x="310" y="80" width="30" height="30" as="geometry" />
        </mxCell>
        <mxCell id="ctMj3vyAkk-ZHn5RQAny-36" value="&lt;font style=&quot;font-size: 14px;&quot;&gt;4&lt;/font&gt;" style="text;html=1;align=center;verticalAlign=middle;resizable=0;points=[];autosize=1;strokeColor=none;fillColor=none;" parent="1" vertex="1">
          <mxGeometry x="330" y="170" width="30" height="30" as="geometry" />
        </mxCell>
        <mxCell id="ctMj3vyAkk-ZHn5RQAny-38" value="&lt;font style=&quot;font-size: 14px;&quot;&gt;5&lt;/font&gt;" style="text;html=1;align=center;verticalAlign=middle;resizable=0;points=[];autosize=1;strokeColor=none;fillColor=none;" parent="1" vertex="1">
          <mxGeometry x="590" y="110" width="30" height="30" as="geometry" />
        </mxCell>
        <mxCell id="ctMj3vyAkk-ZHn5RQAny-41" value="&lt;font style=&quot;font-size: 14px;&quot;&gt;5&lt;/font&gt;" style="text;html=1;align=center;verticalAlign=middle;resizable=0;points=[];autosize=1;strokeColor=none;fillColor=none;" parent="1" vertex="1">
          <mxGeometry x="587" y="140" width="30" height="30" as="geometry" />
        </mxCell>
        <mxCell id="ctMj3vyAkk-ZHn5RQAny-43" value="&lt;font style=&quot;font-size: 14px;&quot;&gt;6&lt;/font&gt;" style="text;html=1;align=center;verticalAlign=middle;resizable=0;points=[];autosize=1;strokeColor=none;fillColor=none;" parent="1" vertex="1">
          <mxGeometry x="629" y="230" width="30" height="30" as="geometry" />
        </mxCell>
        <mxCell id="ctMj3vyAkk-ZHn5RQAny-44" value="7" style="text;html=1;align=center;verticalAlign=middle;resizable=0;points=[];autosize=1;strokeColor=none;fillColor=none;fontSize=14;" parent="1" vertex="1">
          <mxGeometry x="599" y="255" width="30" height="30" as="geometry" />
        </mxCell>
        <mxCell id="ctMj3vyAkk-ZHn5RQAny-47" value="9" style="text;html=1;align=center;verticalAlign=middle;resizable=0;points=[];autosize=1;strokeColor=none;fillColor=none;fontSize=14;" parent="1" vertex="1">
          <mxGeometry x="692" y="211" width="26" height="29" as="geometry" />
        </mxCell>
        <mxCell id="1a3qa3QEZU3ZwUFXincs-8" style="rounded=0;orthogonalLoop=1;jettySize=auto;html=1;entryX=0;entryY=1;entryDx=0;entryDy=0;" edge="1" parent="1" source="1a3qa3QEZU3ZwUFXincs-1" target="ctMj3vyAkk-ZHn5RQAny-9">
          <mxGeometry relative="1" as="geometry" />
        </mxCell>
        <mxCell id="1a3qa3QEZU3ZwUFXincs-12" style="rounded=0;orthogonalLoop=1;jettySize=auto;html=1;entryX=0.027;entryY=0.686;entryDx=0;entryDy=0;entryPerimeter=0;" edge="1" parent="1" source="1a3qa3QEZU3ZwUFXincs-1" target="ctMj3vyAkk-ZHn5RQAny-10">
          <mxGeometry relative="1" as="geometry" />
        </mxCell>
        <mxCell id="1a3qa3QEZU3ZwUFXincs-1" value="&lt;font color=&quot;#000000&quot;&gt;refereeSite&lt;/font&gt;" style="ellipse;whiteSpace=wrap;html=1;movable=1;resizable=1;rotatable=1;deletable=1;editable=1;locked=0;connectable=1;" vertex="1" parent="1">
          <mxGeometry x="339" y="289" width="150" height="70" as="geometry" />
        </mxCell>
        <mxCell id="1a3qa3QEZU3ZwUFXincs-10" style="rounded=0;orthogonalLoop=1;jettySize=auto;html=1;entryX=0.5;entryY=1;entryDx=0;entryDy=0;exitX=1;exitY=0.5;exitDx=0;exitDy=0;" edge="1" parent="1" source="1a3qa3QEZU3ZwUFXincs-2" target="ctMj3vyAkk-ZHn5RQAny-10">
          <mxGeometry relative="1" as="geometry" />
        </mxCell>
        <mxCell id="1a3qa3QEZU3ZwUFXincs-2" value="generalRepo" style="ellipse;whiteSpace=wrap;html=1;movable=1;resizable=1;rotatable=1;deletable=1;editable=1;locked=0;connectable=1;" vertex="1" parent="1">
          <mxGeometry x="339" y="373" width="150" height="70" as="geometry" />
        </mxCell>
        <mxCell id="1a3qa3QEZU3ZwUFXincs-6" value="&lt;font style=&quot;font-size: 14px;&quot;&gt;2&lt;/font&gt;" style="text;html=1;align=center;verticalAlign=middle;resizable=0;points=[];autosize=1;strokeColor=none;fillColor=none;" vertex="1" parent="1">
          <mxGeometry x="313" y="370" width="30" height="30" as="geometry" />
        </mxCell>
        <mxCell id="1a3qa3QEZU3ZwUFXincs-7" value="&lt;font style=&quot;font-size: 14px;&quot;&gt;2&lt;/font&gt;" style="text;html=1;align=center;verticalAlign=middle;resizable=0;points=[];autosize=1;strokeColor=none;fillColor=none;" vertex="1" parent="1">
          <mxGeometry x="313" y="296" width="30" height="30" as="geometry" />
        </mxCell>
        <mxCell id="1a3qa3QEZU3ZwUFXincs-9" style="rounded=0;orthogonalLoop=1;jettySize=auto;html=1;exitX=1;exitY=0;exitDx=0;exitDy=0;entryX=0.267;entryY=1;entryDx=0;entryDy=0;entryPerimeter=0;" edge="1" parent="1" source="1a3qa3QEZU3ZwUFXincs-2" target="ctMj3vyAkk-ZHn5RQAny-9">
          <mxGeometry relative="1" as="geometry" />
        </mxCell>
        <mxCell id="1a3qa3QEZU3ZwUFXincs-11" value="8" style="text;html=1;align=center;verticalAlign=middle;resizable=0;points=[];autosize=1;strokeColor=none;fillColor=none;fontSize=14;" vertex="1" parent="1">
          <mxGeometry x="617" y="305" width="30" height="30" as="geometry" />
        </mxCell>
        <mxCell id="1a3qa3QEZU3ZwUFXincs-14" value="&lt;font style=&quot;font-size: 14px;&quot;&gt;6&lt;/font&gt;" style="text;html=1;align=center;verticalAlign=middle;resizable=0;points=[];autosize=1;strokeColor=none;fillColor=none;" vertex="1" parent="1">
          <mxGeometry x="680" y="326" width="30" height="30" as="geometry" />
        </mxCell>
        <mxCell id="1a3qa3QEZU3ZwUFXincs-15" value="&lt;font style=&quot;font-size: 14px;&quot;&gt;5&lt;/font&gt;" style="text;html=1;align=center;verticalAlign=middle;resizable=0;points=[];autosize=1;strokeColor=none;fillColor=none;" vertex="1" parent="1">
          <mxGeometry x="645" y="176" width="30" height="30" as="geometry" />
        </mxCell>
        <mxCell id="1a3qa3QEZU3ZwUFXincs-16" value="&lt;font style=&quot;font-size: 14px;&quot;&gt;5&lt;/font&gt;" style="text;html=1;align=center;verticalAlign=middle;resizable=0;points=[];autosize=1;strokeColor=none;fillColor=none;" vertex="1" parent="1">
          <mxGeometry x="615" y="164" width="30" height="30" as="geometry" />
        </mxCell>
      </root>
    </mxGraphModel>
  </diagram>
</mxfile>
